<svg width="100" height="100" viewBox="0 0 100 100" xmlns="http://www.w3.org/2000/svg">
  <defs>
    <linearGradient id="shieldGrad" x1="0" y1="0" x2="0" y2="1">
      <stop offset="0%" stop-color="#6E8AFC" />
      <stop offset="100%" stop-color="#375DFB" />
    </linearGradient>
  </defs>
  <path
    d="M20,30 Q20,15 35,15 H65 Q80,15 80,30 Q80,60 50,85 Q20,60 20,30 Z"
    fill="url(#shieldGrad)"
  />
  <path
    d="M50,35 Q55,50 70,50 Q55,50 50,65 Q45,50 30,50 Q45,50 50,35 Z"
    fill="white"
    fill-opacity="0.9"
  />
  <path
    d="M50,35 Q55,50 70,50 Q55,50 50,65 Q45,50 30,50 Q45,50 50,35 Z"
    fill="url(#shieldGrad)"
    fill-opacity="0.5"
  />
</svg>
